<mxfile host="app.diagrams.net" modified="2023-03-14T08:54:09.259Z" agent="5.0 (Macintosh; Intel Mac OS X 10_15_7) AppleWebKit/537.36 (KHTML, like Gecko) Chrome/110.0.0.0 Safari/537.36" etag="C31SFSfOP6u50UE4FMiJ" version="21.0.4" type="github">
  <diagram name="第 1 页" id="RR7vvi27p-nKMQcNhg5I">
    <mxGraphModel dx="954" dy="591" grid="1" gridSize="10" guides="1" tooltips="1" connect="1" arrows="1" fold="1" page="1" pageScale="1" pageWidth="827" pageHeight="1169" math="0" shadow="0">
      <root>
        <mxCell id="0" />
        <mxCell id="1" parent="0" />
        <mxCell id="0zJJODqEOMlysSU1cm9Q-1" value="数据流控制模块" style="text;html=1;strokeColor=none;fillColor=none;align=center;verticalAlign=middle;whiteSpace=wrap;rounded=0;" parent="1" vertex="1">
          <mxGeometry x="100" y="20" width="130" height="30" as="geometry" />
        </mxCell>
        <mxCell id="0zJJODqEOMlysSU1cm9Q-2" value="" style="rounded=0;whiteSpace=wrap;html=1;" parent="1" vertex="1">
          <mxGeometry x="80" y="80" width="520" height="320" as="geometry" />
        </mxCell>
        <mxCell id="0zJJODqEOMlysSU1cm9Q-3" value="传输进程：" style="text;html=1;strokeColor=none;fillColor=none;align=center;verticalAlign=middle;whiteSpace=wrap;rounded=0;" parent="1" vertex="1">
          <mxGeometry x="90" y="100" width="90" height="30" as="geometry" />
        </mxCell>
        <mxCell id="0zJJODqEOMlysSU1cm9Q-4" value="安全信息" style="text;html=1;strokeColor=none;fillColor=none;align=center;verticalAlign=middle;whiteSpace=wrap;rounded=0;" parent="1" vertex="1">
          <mxGeometry x="100" y="140" width="60" height="30" as="geometry" />
        </mxCell>
        <mxCell id="0zJJODqEOMlysSU1cm9Q-5" value="" style="rounded=0;whiteSpace=wrap;html=1;" parent="1" vertex="1">
          <mxGeometry x="100" y="170" width="410" height="125" as="geometry" />
        </mxCell>
        <mxCell id="0zJJODqEOMlysSU1cm9Q-7" value="客户端证书" style="text;html=1;strokeColor=none;fillColor=none;align=center;verticalAlign=middle;whiteSpace=wrap;rounded=0;" parent="1" vertex="1">
          <mxGeometry x="120" y="180" width="80" height="30" as="geometry" />
        </mxCell>
        <mxCell id="0zJJODqEOMlysSU1cm9Q-8" value="设备状态" style="text;html=1;strokeColor=none;fillColor=none;align=center;verticalAlign=middle;whiteSpace=wrap;rounded=0;" parent="1" vertex="1">
          <mxGeometry x="130" y="218" width="60" height="30" as="geometry" />
        </mxCell>
        <mxCell id="0zJJODqEOMlysSU1cm9Q-9" value="网络状态" style="text;html=1;strokeColor=none;fillColor=none;align=center;verticalAlign=middle;whiteSpace=wrap;rounded=0;" parent="1" vertex="1">
          <mxGeometry x="130" y="260" width="60" height="30" as="geometry" />
        </mxCell>
        <mxCell id="0zJJODqEOMlysSU1cm9Q-10" value="归属用户：" style="text;html=1;strokeColor=none;fillColor=none;align=center;verticalAlign=middle;whiteSpace=wrap;rounded=0;" parent="1" vertex="1">
          <mxGeometry x="310" y="100" width="70" height="30" as="geometry" />
        </mxCell>
        <mxCell id="0zJJODqEOMlysSU1cm9Q-11" value="传输数据：" style="text;html=1;strokeColor=none;fillColor=none;align=center;verticalAlign=middle;whiteSpace=wrap;rounded=0;" parent="1" vertex="1">
          <mxGeometry x="90" y="320" width="80" height="30" as="geometry" />
        </mxCell>
        <mxCell id="0zJJODqEOMlysSU1cm9Q-12" value="信任评估模块" style="text;html=1;strokeColor=none;fillColor=none;align=center;verticalAlign=middle;whiteSpace=wrap;rounded=0;" parent="1" vertex="1">
          <mxGeometry x="90" y="460" width="90" height="30" as="geometry" />
        </mxCell>
        <mxCell id="0zJJODqEOMlysSU1cm9Q-13" value="" style="rounded=0;whiteSpace=wrap;html=1;" parent="1" vertex="1">
          <mxGeometry x="80" y="525" width="470" height="295" as="geometry" />
        </mxCell>
        <mxCell id="0zJJODqEOMlysSU1cm9Q-14" value="安全信息" style="text;html=1;strokeColor=none;fillColor=none;align=center;verticalAlign=middle;whiteSpace=wrap;rounded=0;" parent="1" vertex="1">
          <mxGeometry x="100" y="540" width="60" height="30" as="geometry" />
        </mxCell>
        <mxCell id="0zJJODqEOMlysSU1cm9Q-15" value="" style="rounded=0;whiteSpace=wrap;html=1;" parent="1" vertex="1">
          <mxGeometry x="105" y="570" width="275" height="140" as="geometry" />
        </mxCell>
        <mxCell id="0zJJODqEOMlysSU1cm9Q-16" value="客户端证书：" style="text;html=1;strokeColor=none;fillColor=none;align=center;verticalAlign=middle;whiteSpace=wrap;rounded=0;" parent="1" vertex="1">
          <mxGeometry x="110" y="580" width="100" height="30" as="geometry" />
        </mxCell>
        <mxCell id="0zJJODqEOMlysSU1cm9Q-17" value="设备状态：" style="text;html=1;strokeColor=none;fillColor=none;align=center;verticalAlign=middle;whiteSpace=wrap;rounded=0;" parent="1" vertex="1">
          <mxGeometry x="110" y="610" width="100" height="30" as="geometry" />
        </mxCell>
        <mxCell id="0zJJODqEOMlysSU1cm9Q-18" value="网络状态：" style="text;html=1;strokeColor=none;fillColor=none;align=center;verticalAlign=middle;whiteSpace=wrap;rounded=0;" parent="1" vertex="1">
          <mxGeometry x="110" y="640" width="100" height="30" as="geometry" />
        </mxCell>
        <mxCell id="0zJJODqEOMlysSU1cm9Q-19" value="进程状态：" style="text;html=1;strokeColor=none;fillColor=none;align=center;verticalAlign=middle;whiteSpace=wrap;rounded=0;" parent="1" vertex="1">
          <mxGeometry x="110" y="670" width="100" height="30" as="geometry" />
        </mxCell>
        <mxCell id="0zJJODqEOMlysSU1cm9Q-20" value="评分" style="text;html=1;strokeColor=none;fillColor=none;align=center;verticalAlign=middle;whiteSpace=wrap;rounded=0;" parent="1" vertex="1">
          <mxGeometry x="262.5" y="580" width="60" height="30" as="geometry" />
        </mxCell>
        <mxCell id="0zJJODqEOMlysSU1cm9Q-21" value="评分" style="text;html=1;strokeColor=none;fillColor=none;align=center;verticalAlign=middle;whiteSpace=wrap;rounded=0;" parent="1" vertex="1">
          <mxGeometry x="262.5" y="600" width="60" height="30" as="geometry" />
        </mxCell>
        <mxCell id="0zJJODqEOMlysSU1cm9Q-22" value="评分" style="text;html=1;strokeColor=none;fillColor=none;align=center;verticalAlign=middle;whiteSpace=wrap;rounded=0;" parent="1" vertex="1">
          <mxGeometry x="262.5" y="632.5" width="60" height="30" as="geometry" />
        </mxCell>
        <mxCell id="0zJJODqEOMlysSU1cm9Q-23" value="评分" style="text;html=1;strokeColor=none;fillColor=none;align=center;verticalAlign=middle;whiteSpace=wrap;rounded=0;" parent="1" vertex="1">
          <mxGeometry x="262.5" y="662.5" width="60" height="30" as="geometry" />
        </mxCell>
        <mxCell id="0zJJODqEOMlysSU1cm9Q-24" value="多信任路径聚合评分：" style="text;html=1;strokeColor=none;fillColor=none;align=center;verticalAlign=middle;whiteSpace=wrap;rounded=0;" parent="1" vertex="1">
          <mxGeometry x="100" y="740" width="130" height="30" as="geometry" />
        </mxCell>
        <mxCell id="0zJJODqEOMlysSU1cm9Q-25" value="信任评估结果" style="text;html=1;strokeColor=none;fillColor=none;align=center;verticalAlign=middle;whiteSpace=wrap;rounded=0;" parent="1" vertex="1">
          <mxGeometry x="110" y="780" width="80" height="30" as="geometry" />
        </mxCell>
        <mxCell id="0zJJODqEOMlysSU1cm9Q-26" value="访问控制模块" style="text;html=1;strokeColor=none;fillColor=none;align=center;verticalAlign=middle;whiteSpace=wrap;rounded=0;" parent="1" vertex="1">
          <mxGeometry x="80" y="880" width="90" height="30" as="geometry" />
        </mxCell>
        <mxCell id="0zJJODqEOMlysSU1cm9Q-27" value="" style="rounded=0;whiteSpace=wrap;html=1;" parent="1" vertex="1">
          <mxGeometry x="80" y="930" width="570" height="360" as="geometry" />
        </mxCell>
        <mxCell id="0zJJODqEOMlysSU1cm9Q-28" value="PBAC策略录入" style="text;html=1;strokeColor=none;fillColor=none;align=center;verticalAlign=middle;whiteSpace=wrap;rounded=0;" parent="1" vertex="1">
          <mxGeometry x="105" y="950" width="85" height="30" as="geometry" />
        </mxCell>
        <mxCell id="0zJJODqEOMlysSU1cm9Q-29" value="策略名称：" style="text;html=1;strokeColor=none;fillColor=none;align=center;verticalAlign=middle;whiteSpace=wrap;rounded=0;" parent="1" vertex="1">
          <mxGeometry x="100" y="1000" width="70" height="30" as="geometry" />
        </mxCell>
        <mxCell id="0zJJODqEOMlysSU1cm9Q-30" value="策略结果：" style="text;html=1;strokeColor=none;fillColor=none;align=center;verticalAlign=middle;whiteSpace=wrap;rounded=0;" parent="1" vertex="1">
          <mxGeometry x="100" y="1030" width="70" height="30" as="geometry" />
        </mxCell>
        <mxCell id="0zJJODqEOMlysSU1cm9Q-31" value="策略操作：" style="text;html=1;strokeColor=none;fillColor=none;align=center;verticalAlign=middle;whiteSpace=wrap;rounded=0;" parent="1" vertex="1">
          <mxGeometry x="100" y="1060" width="70" height="30" as="geometry" />
        </mxCell>
        <mxCell id="0zJJODqEOMlysSU1cm9Q-32" value="策略保护资源：" style="text;html=1;strokeColor=none;fillColor=none;align=center;verticalAlign=middle;whiteSpace=wrap;rounded=0;" parent="1" vertex="1">
          <mxGeometry x="100" y="1090" width="90" height="30" as="geometry" />
        </mxCell>
        <mxCell id="0zJJODqEOMlysSU1cm9Q-33" value="群组对象：" style="text;html=1;strokeColor=none;fillColor=none;align=center;verticalAlign=middle;whiteSpace=wrap;rounded=0;" parent="1" vertex="1">
          <mxGeometry x="90" y="1120" width="90" height="30" as="geometry" />
        </mxCell>
        <mxCell id="0zJJODqEOMlysSU1cm9Q-34" value="群组限制条件：" style="text;html=1;strokeColor=none;fillColor=none;align=center;verticalAlign=middle;whiteSpace=wrap;rounded=0;" parent="1" vertex="1">
          <mxGeometry x="105" y="1150" width="90" height="30" as="geometry" />
        </mxCell>
        <mxCell id="0zJJODqEOMlysSU1cm9Q-35" value="网络限制：" style="text;html=1;strokeColor=none;fillColor=none;align=center;verticalAlign=middle;whiteSpace=wrap;rounded=0;" parent="1" vertex="1">
          <mxGeometry x="135" y="1180" width="75" height="30" as="geometry" />
        </mxCell>
        <mxCell id="0zJJODqEOMlysSU1cm9Q-36" value="设备限制：" style="text;html=1;strokeColor=none;fillColor=none;align=center;verticalAlign=middle;whiteSpace=wrap;rounded=0;" parent="1" vertex="1">
          <mxGeometry x="135" y="1210" width="75" height="30" as="geometry" />
        </mxCell>
        <mxCell id="0zJJODqEOMlysSU1cm9Q-37" value="终端限制：" style="text;html=1;strokeColor=none;fillColor=none;align=center;verticalAlign=middle;whiteSpace=wrap;rounded=0;" parent="1" vertex="1">
          <mxGeometry x="135" y="1240" width="75" height="30" as="geometry" />
        </mxCell>
        <mxCell id="0zJJODqEOMlysSU1cm9Q-39" value="" style="rounded=0;whiteSpace=wrap;html=1;" parent="1" vertex="1">
          <mxGeometry x="80" y="1320" width="570" height="250" as="geometry" />
        </mxCell>
        <mxCell id="0zJJODqEOMlysSU1cm9Q-41" value="PBAC策略记录" style="text;html=1;strokeColor=none;fillColor=none;align=center;verticalAlign=middle;whiteSpace=wrap;rounded=0;" parent="1" vertex="1">
          <mxGeometry x="90" y="1340" width="100" height="30" as="geometry" />
        </mxCell>
        <mxCell id="0zJJODqEOMlysSU1cm9Q-42" value="用户" style="text;html=1;strokeColor=none;fillColor=none;align=center;verticalAlign=middle;whiteSpace=wrap;rounded=0;" parent="1" vertex="1">
          <mxGeometry x="105" y="1390" width="60" height="30" as="geometry" />
        </mxCell>
        <mxCell id="0zJJODqEOMlysSU1cm9Q-43" value="策略" style="text;html=1;strokeColor=none;fillColor=none;align=center;verticalAlign=middle;whiteSpace=wrap;rounded=0;" parent="1" vertex="1">
          <mxGeometry x="250" y="1390" width="60" height="30" as="geometry" />
        </mxCell>
        <mxCell id="0zJJODqEOMlysSU1cm9Q-44" value="群组" style="text;html=1;strokeColor=none;fillColor=none;align=center;verticalAlign=middle;whiteSpace=wrap;rounded=0;" parent="1" vertex="1">
          <mxGeometry x="332.5" y="1390" width="60" height="30" as="geometry" />
        </mxCell>
        <mxCell id="0zJJODqEOMlysSU1cm9Q-45" value="DIFC标签" style="text;html=1;strokeColor=none;fillColor=none;align=center;verticalAlign=middle;whiteSpace=wrap;rounded=0;" parent="1" vertex="1">
          <mxGeometry x="442.5" y="1390" width="60" height="30" as="geometry" />
        </mxCell>
        <mxCell id="0zJJODqEOMlysSU1cm9Q-46" value="" style="rounded=0;whiteSpace=wrap;html=1;" parent="1" vertex="1">
          <mxGeometry x="80" y="1600" width="590" height="280" as="geometry" />
        </mxCell>
        <mxCell id="0zJJODqEOMlysSU1cm9Q-47" value="传输进程：" style="text;html=1;strokeColor=none;fillColor=none;align=center;verticalAlign=middle;whiteSpace=wrap;rounded=0;" parent="1" vertex="1">
          <mxGeometry x="115" y="1660" width="90" height="30" as="geometry" />
        </mxCell>
        <mxCell id="0zJJODqEOMlysSU1cm9Q-48" value="PBAC策略决策" style="text;html=1;strokeColor=none;fillColor=none;align=center;verticalAlign=middle;whiteSpace=wrap;rounded=0;" parent="1" vertex="1">
          <mxGeometry x="90" y="1610" width="100" height="30" as="geometry" />
        </mxCell>
        <mxCell id="0zJJODqEOMlysSU1cm9Q-49" value="所属用户：" style="text;html=1;strokeColor=none;fillColor=none;align=center;verticalAlign=middle;whiteSpace=wrap;rounded=0;" parent="1" vertex="1">
          <mxGeometry x="345" y="1660" width="75" height="30" as="geometry" />
        </mxCell>
        <mxCell id="0zJJODqEOMlysSU1cm9Q-50" value="目的进程：" style="text;html=1;strokeColor=none;fillColor=none;align=center;verticalAlign=middle;whiteSpace=wrap;rounded=0;" parent="1" vertex="1">
          <mxGeometry x="117.5" y="1700" width="85" height="30" as="geometry" />
        </mxCell>
        <mxCell id="0zJJODqEOMlysSU1cm9Q-51" value="所属用户：" style="text;html=1;strokeColor=none;fillColor=none;align=center;verticalAlign=middle;whiteSpace=wrap;rounded=0;" parent="1" vertex="1">
          <mxGeometry x="345" y="1700" width="75" height="30" as="geometry" />
        </mxCell>
        <mxCell id="0zJJODqEOMlysSU1cm9Q-52" value="数据DIFC标签:" style="text;html=1;strokeColor=none;fillColor=none;align=center;verticalAlign=middle;whiteSpace=wrap;rounded=0;" parent="1" vertex="1">
          <mxGeometry x="118" y="1739" width="92" height="30" as="geometry" />
        </mxCell>
        <mxCell id="0zJJODqEOMlysSU1cm9Q-53" value="群组判定：" style="text;html=1;strokeColor=none;fillColor=none;align=center;verticalAlign=middle;whiteSpace=wrap;rounded=0;" parent="1" vertex="1">
          <mxGeometry x="120" y="1780" width="70" height="30" as="geometry" />
        </mxCell>
        <mxCell id="0zJJODqEOMlysSU1cm9Q-54" value="DIFC标签判定：" style="text;html=1;strokeColor=none;fillColor=none;align=center;verticalAlign=middle;whiteSpace=wrap;rounded=0;" parent="1" vertex="1">
          <mxGeometry x="110" y="1820" width="100" height="30" as="geometry" />
        </mxCell>
        <mxCell id="0zJJODqEOMlysSU1cm9Q-55" value="DIFC标签计算：" style="text;html=1;strokeColor=none;fillColor=none;align=center;verticalAlign=middle;whiteSpace=wrap;rounded=0;" parent="1" vertex="1">
          <mxGeometry x="332.5" y="1820" width="110" height="30" as="geometry" />
        </mxCell>
        <mxCell id="0zJJODqEOMlysSU1cm9Q-57" value="接收方DIFC标签:" style="text;html=1;strokeColor=none;fillColor=none;align=center;verticalAlign=middle;whiteSpace=wrap;rounded=0;" parent="1" vertex="1">
          <mxGeometry x="335" y="1780" width="105" height="30" as="geometry" />
        </mxCell>
        <mxCell id="Kk0is7rGX_PJdl1CwgSs-1" value="资源" style="text;html=1;strokeColor=none;fillColor=none;align=center;verticalAlign=middle;whiteSpace=wrap;rounded=0;" vertex="1" parent="1">
          <mxGeometry x="170" y="1390" width="60" height="30" as="geometry" />
        </mxCell>
      </root>
    </mxGraphModel>
  </diagram>
</mxfile>
